<?xml version="1.0" standalone="no"?>
<!DOCTYPE svg PUBLIC "-//W3C//DTD SVG 20010904//EN"
 "http://www.w3.org/TR/2001/REC-SVG-20010904/DTD/svg10.dtd">
<svg version="1.0" xmlns="http://www.w3.org/2000/svg"
 width="217.000000pt" height="300.000000pt" viewBox="0 0 217.000000 300.000000"
 preserveAspectRatio="xMidYMid meet">

<g transform="translate(0.000000,300.000000) scale(0.100000,-0.100000)"
fill="#000000" stroke="none">
<path d="M1265 2985 c-27 -8 -88 -24 -133 -36 -46 -12 -96 -32 -111 -45 -15
-12 -40 -26 -55 -30 -38 -9 -114 -91 -126 -134 -5 -19 -28 -57 -50 -84 -44
-54 -47 -66 -24 -101 12 -18 14 -35 9 -61 -5 -29 -1 -43 20 -74 47 -67 53
-170 12 -170 -8 0 -26 -11 -41 -25 -15 -14 -39 -25 -53 -25 -18 0 -38 -13 -63
-40 -31 -34 -43 -40 -77 -40 -52 0 -103 21 -178 75 -127 90 -173 97 -248 39
-26 -20 -47 -42 -47 -49 0 -7 -10 -25 -22 -40 -13 -17 -23 -45 -24 -69 -1 -23
-2 -44 -3 -48 -1 -4 -10 -9 -20 -13 -34 -10 -33 -35 2 -70 28 -28 42 -33 102
-40 64 -6 72 -10 106 -47 30 -33 45 -41 83 -45 51 -6 54 -10 29 -28 -17 -13
-17 -14 1 -33 27 -30 14 -54 -66 -124 -111 -98 -118 -105 -118 -133 0 -31 24
-42 132 -57 l77 -11 -24 -29 c-34 -40 -23 -52 39 -45 36 4 57 1 71 -9 31 -23
184 -9 257 23 53 24 61 25 103 13 55 -15 60 -22 35 -45 -27 -24 -25 -51 5 -71
33 -22 39 -46 25 -105 -12 -47 -11 -52 11 -75 20 -21 24 -38 27 -100 6 -102
-1 -126 -36 -122 -29 3 -35 20 -47 131 -8 71 -33 102 -73 92 -50 -12 -65 -35
-57 -85 4 -25 8 -63 9 -85 l1 -40 -50 2 c-27 1 -72 3 -100 5 -65 4 -143 -26
-156 -59 -5 -14 -9 -64 -9 -113 0 -88 0 -89 32 -114 39 -30 41 -66 8 -141 -42
-94 -40 -322 3 -387 31 -46 121 -76 177 -59 50 15 97 62 127 128 26 56 27 71
18 183 -5 54 -3 86 8 115 13 36 18 40 46 37 34 -2 42 16 16 38 -8 7 -15 16
-15 21 0 17 24 9 52 -18 29 -28 36 -57 17 -69 -7 -4 -9 -21 -6 -41 4 -24 -2
-56 -18 -100 -34 -90 -33 -146 3 -183 37 -36 100 -54 164 -45 43 6 54 4 91
-21 l42 -29 165 0 c99 1 181 6 206 13 57 17 108 53 112 81 5 30 -18 54 -95 97
-35 20 -67 42 -70 50 -3 8 -20 14 -42 14 -20 0 -45 7 -55 15 -11 8 -34 15 -51
15 -17 0 -41 7 -53 16 -18 13 -22 25 -22 73 0 60 -13 82 -67 110 -31 16 -44
74 -41 179 l3 87 120 40 c66 22 139 51 162 63 24 12 64 25 89 29 30 4 58 16
78 33 17 15 50 37 73 48 70 36 69 80 -6 194 -27 40 -62 90 -80 112 -17 21 -31
49 -31 62 0 18 -10 28 -45 43 -42 19 -134 105 -135 126 0 6 23 23 51 39 62 35
73 58 88 190 5 55 15 104 20 109 10 10 84 -6 286 -62 119 -34 254 -22 306 25
40 36 31 179 -18 319 -69 193 -178 350 -322 461 -60 46 -65 53 -78 107 -19 85
-38 114 -91 141 -26 13 -56 33 -66 45 -11 12 -28 21 -38 21 -10 0 -53 18 -94
40 -83 44 -95 45 -169 25z m30 -175 c3 -5 1 -10 -4 -10 -6 0 -11 5 -11 10 0 6
2 10 4 10 3 0 8 -4 11 -10z m-185 -50 c0 -5 -4 -10 -10 -10 -5 0 -10 5 -10 10
0 6 5 10 10 10 6 0 10 -4 10 -10z m208 -63 c3 -12 -3 -17 -20 -17 -29 0 -48
17 -48 42 0 16 3 17 33 5 17 -7 33 -21 35 -30z m-58 -35 c29 -24 18 -44 -18
-36 -35 9 -46 19 -39 38 8 21 30 20 57 -2z m481 -74 c104 -53 252 -236 308
-381 40 -106 54 -171 55 -255 1 -66 -2 -76 -22 -93 -44 -35 -86 -39 -196 -20
-152 28 -297 76 -428 143 -96 48 -132 74 -194 134 -42 41 -79 74 -81 74 -3 0
-3 -10 1 -23 8 -32 70 -96 144 -147 58 -40 71 -59 46 -67 -6 -2 -30 9 -55 25
-24 16 -70 44 -102 63 -68 39 -127 100 -127 130 0 32 28 77 58 93 16 8 48 14
73 14 114 -3 169 42 169 137 0 84 16 122 63 152 93 59 197 67 288 21z m-460
-70 c21 -6 46 -19 55 -29 19 -21 31 -103 17 -112 -12 -8 -94 11 -110 25 -11 9
-10 15 8 34 29 31 19 54 -24 54 -37 0 -87 -37 -87 -65 0 -49 60 -104 115 -105
40 -1 40 -1 15 -15 -93 -53 -196 56 -145 154 19 37 63 70 94 71 13 0 41 -5 62
-12z m-321 -478 c0 -5 -4 -10 -10 -10 -5 0 -10 5 -10 10 0 6 5 10 10 10 6 0
10 -4 10 -10z m-80 -56 c0 -8 -7 -14 -15 -14 -15 0 -21 21 -9 33 10 9 24 -2
24 -19z m-75 6 c3 -5 1 -10 -4 -10 -6 0 -11 5 -11 10 0 6 2 10 4 10 3 0 8 -4
11 -10z m245 -30 c0 -5 -4 -10 -10 -10 -5 0 -10 5 -10 10 0 6 5 10 10 10 6 0
10 -4 10 -10z m-110 -10 c0 -5 -4 -10 -10 -10 -5 0 -10 5 -10 10 0 6 5 10 10
10 6 0 10 -4 10 -10z m-86 -19 c9 -13 -56 -105 -76 -109 -26 -5 -22 9 15 66
31 49 50 62 61 43z m128 -7 c8 -7 -23 -84 -33 -84 -17 0 -19 21 -5 55 14 33
26 42 38 29z m148 -14 c0 -5 -5 -10 -11 -10 -5 0 -7 5 -4 10 3 6 8 10 11 10 2
0 4 -4 4 -10z m-220 -10 c0 -5 -4 -10 -10 -10 -5 0 -10 5 -10 10 0 6 5 10 10
10 6 0 10 -4 10 -10z m-174 -21 c8 -14 -18 -31 -30 -19 -9 9 0 30 14 30 5 0
12 -5 16 -11z m442 -22 c2 -10 -3 -17 -12 -17 -18 0 -29 16 -21 31 9 14 29 6
33 -14z m-502 -12 c6 -16 -12 -45 -27 -45 -10 0 -12 44 -2 53 11 11 23 8 29
-8z m164 -24 c0 -13 -29 -35 -37 -28 -7 8 15 37 28 37 5 0 9 -4 9 -9z m187
-46 c5 -16 -22 -55 -39 -55 -11 0 -10 13 2 44 11 29 28 34 37 11z m-177 -105
c0 -5 -4 -10 -10 -10 -5 0 -10 5 -10 10 0 6 5 10 10 10 6 0 10 -4 10 -10z
m125 -70 c3 -5 -1 -10 -10 -10 -9 0 -13 5 -10 10 3 6 8 10 10 10 2 0 7 -4 10
-10z m-265 -8 c0 -5 -13 -15 -28 -23 -115 -58 -139 -69 -154 -69 -39 0 -14 22
65 59 81 39 117 49 117 33z m733 -194 c150 -157 254 -318 231 -355 -13 -22
-126 -78 -174 -88 -19 -3 -57 -19 -85 -34 -27 -16 -129 -56 -225 -91 -96 -34
-212 -80 -257 -101 -45 -21 -85 -39 -88 -39 -12 0 -36 72 -30 91 4 10 18 22
33 25 112 25 193 59 263 109 71 51 99 63 175 73 69 10 178 55 217 89 37 34 15
66 -83 123 -55 33 -220 175 -220 191 0 5 15 15 34 23 19 8 52 26 73 40 21 14
42 26 48 26 5 0 45 -37 88 -82z m-348 47 c0 -14 -6 -19 -20 -17 -30 5 -42 21
-25 32 23 15 45 7 45 -15z m-63 -87 c40 -6 74 -13 76 -14 1 -1 -2 -22 -8 -48
-8 -37 -7 -58 5 -98 17 -59 20 -156 5 -208 -7 -25 -22 -43 -53 -62 -24 -16
-49 -28 -56 -28 -19 0 -41 65 -41 120 0 28 -5 61 -12 73 -7 12 -13 49 -14 82
-1 33 -5 83 -9 112 -8 59 -3 83 20 83 8 0 47 -5 87 -12z m220 -70 c20 -16 48
-49 63 -73 20 -36 31 -45 53 -45 15 0 41 -11 57 -24 25 -20 28 -28 19 -42 -21
-34 -60 -53 -149 -73 -49 -11 -98 -22 -107 -26 -26 -10 -33 35 -19 115 11 62
11 70 -9 108 -20 38 -21 84 -3 114 4 9 38 -11 95 -54z m-129 -605 c4 -38 7
-100 7 -140 0 -80 -10 -93 -67 -93 -53 0 -60 15 -67 137 l-7 112 48 25 c74 39
79 37 86 -41z m-173 -45 c0 -24 3 -60 6 -80 6 -37 6 -38 -24 -38 -36 0 -50 25
-27 50 8 9 15 35 15 57 0 22 3 43 7 46 15 16 23 4 23 -35z"/>
</g>
</svg>
